<svg width="44" height="45" viewBox="0 0 44 45" fill="none" xmlns="http://www.w3.org/2000/svg">
<rect x="0.5" y="1" width="43" height="43" rx="21.5" stroke="#7EC1FF"/>
<path d="M20.8048 31.2227C20.4638 31.2227 20.1693 31.1095 19.9213 30.8832C19.6732 30.657 19.5222 30.3785 19.4683 30.0477L19.2241 28.1764C18.9563 28.0867 18.6816 27.9612 18.4001 27.7997C18.1188 27.638 17.8672 27.4649 17.6453 27.2804L15.9126 28.0169C15.5984 28.1554 15.2828 28.1688 14.9656 28.0572C14.6483 27.9457 14.4018 27.7432 14.2261 27.4497L13.0991 25.4957C12.9234 25.2022 12.8728 24.8916 12.9473 24.5639C13.0217 24.2364 13.1922 23.9662 13.4588 23.7534L14.9568 22.6284C14.9338 22.4797 14.9175 22.3304 14.9078 22.1804C14.8982 22.0304 14.8933 21.881 14.8933 21.7322C14.8933 21.59 14.8982 21.4455 14.9078 21.2987C14.9175 21.1518 14.9338 20.9912 14.9568 20.8169L13.4588 19.6919C13.1922 19.4791 13.0233 19.2072 12.9521 18.8764C12.8809 18.5457 12.9332 18.2336 13.1088 17.9399L14.2261 16.0149C14.4018 15.7277 14.6483 15.5268 14.9656 15.4122C15.2828 15.2973 15.5984 15.3092 15.9126 15.4477L17.6356 16.1747C17.8768 15.9837 18.1342 15.809 18.4078 15.6507C18.6815 15.4923 18.9504 15.3651 19.2146 15.2689L19.4683 13.3977C19.5222 13.0668 19.6732 12.7883 19.9213 12.5622C20.1693 12.3358 20.4638 12.2227 20.8048 12.2227H23.0203C23.3613 12.2227 23.6558 12.3358 23.9038 12.5622C24.152 12.7883 24.303 13.0668 24.3568 13.3977L24.6011 15.2784C24.9011 15.3874 25.1725 15.5147 25.4153 15.6602C25.6583 15.8057 25.9036 15.9772 26.1511 16.1747L27.9223 15.4477C28.2363 15.3092 28.552 15.2973 28.8693 15.4122C29.1867 15.5268 29.4331 15.7277 29.6086 16.0149L30.7261 17.9497C30.9018 18.2432 30.9523 18.5537 30.8778 18.8814C30.8035 19.2089 30.633 19.4791 30.3663 19.6919L28.8298 20.8457C28.8657 21.0072 28.8853 21.1582 28.8886 21.2987C28.8918 21.439 28.8933 21.5803 28.8933 21.7227C28.8933 21.8585 28.8901 21.9967 28.8836 22.1372C28.8773 22.2775 28.8543 22.4381 28.8146 22.6189L30.3221 23.7534C30.5888 23.9662 30.7609 24.2364 30.8386 24.5639C30.9161 24.8916 30.867 25.2022 30.6913 25.4957L29.5586 27.4399C29.3831 27.7336 29.1351 27.9362 28.8146 28.0477C28.4941 28.1592 28.1768 28.1457 27.8626 28.0072L26.1511 27.2707C25.9036 27.4682 25.651 27.6428 25.3933 27.7947C25.1357 27.9467 24.8716 28.0707 24.6011 28.1669L24.3568 30.0477C24.303 30.3785 24.152 30.657 23.9038 30.8832C23.6558 31.1095 23.3613 31.2227 23.0203 31.2227H20.8048ZM21.9241 24.7227C22.7561 24.7227 23.4641 24.4307 24.0481 23.8467C24.6321 23.2627 24.9241 22.5547 24.9241 21.7227C24.9241 20.8907 24.6321 20.1827 24.0481 19.5987C23.4641 19.0147 22.7561 18.7227 21.9241 18.7227C21.0818 18.7227 20.3712 19.0147 19.7923 19.5987C19.2135 20.1827 18.9241 20.8907 18.9241 21.7227C18.9241 22.5547 19.2135 23.2627 19.7923 23.8467C20.3712 24.4307 21.0818 24.7227 21.9241 24.7227Z" fill="#4DA7FA"/>
</svg>
